:version 1.10
:name ASF
:units
  mass 1
  length 1
  angle deg
:documentation
  ASF file generated by Kaydara
:root
  axis xyz
  order  tx ty tz rx ry rz
  position 0 0 0
  orientation 0 0 0
:bonedata
  begin
    id 1
    name RightUpLegDummy
    direction -1 2.30186e-007 8.31532e-007
    length 4.04083
    axis 0 0 0 xyz
  end
  begin
    id 2
    name RightUpLeg
    direction -0.000919234 -0.999985 0.00544864
    length 17.4221
    axis -3.80308 -0.00076134 -0.0523649 xyz
    dof rx ry rz
  end
  begin
    id 3
    name RightLeg
    direction -0.000919271 -0.999984 -0.00555045
    length 17.1239
    axis 4.00314 0.0181274 -0.183583 xyz
    dof rx ry rz
  end
  begin
    id 4
    name RightFoot
    direction -2.57843e-005 -4.04509e-007 1
    length 6.72091
    axis 8.18909e-005 -0.122003 -0.403008 xyz
    dof rx ry rz
  end
  begin
    id 5
    name RightToes
    direction 0.00116825 -0.014069 0.9999
    length 3.85082
    axis 0.000514414 0.540638 -0.356797 xyz
    dof rx ry rz
  end
  begin
    id 6
    name SpineDummy
    direction 0.0168869 0.966876 -0.254689
    length 6.99894
    axis 0 0 0 xyz
  end
  begin
    id 7
    name Spine
    direction -0.0132008 0.999903 0.00446247
    length 11.1999
    axis -0.00148109 0.00725429 0.756411 xyz
    dof rx ry rz
  end
  begin
    id 8
    name Spine1
    direction 0 0 0
    length 0
    axis -0.000934958 0.0245693 1.46543 xyz
    dof rx ry rz
  end
  begin
    id 9
    name HEadDummy
    direction -0.0255732 0.999672 0.00128215
    length 3.43865
    axis -0.000934958 0.0245693 1.46543 xyz
  end
  begin
    id 10
    name HEad
    direction -0.0472656 0.980052 0.19304
    length 5.12695
    axis -0.000934954 0.0245693 1.46543 xyz
    dof rx ry rz
  end
  begin
    id 11
    name LeftShoulder1Dummy
    direction 0.953098 0.301717 -0.023914
    length 3.68488
    axis -0.000934958 0.0245693 1.46543 xyz
  end
  begin
    id 12
    name LeftShoulder1
    direction 0.962466 0.271167 0.0112566
    length 3.13809
    axis -0.000934958 0.0245693 1.46543 xyz
    dof rx ry rz
  end
  begin
    id 13
    name LeftArm
    direction 0.999943 0.00455037 -0.00961766
    length 11.3419
    axis -23.1648 0.685459 1.22814 xyz
    dof rx ry rz
  end
  begin
    id 14
    name LeftForeArm
    direction 0.999332 0.0131969 0.0340885
    length 8.70632
    axis -9.90633 0.618216 0.0826942 xyz
    dof rx ry rz
  end
  begin
    id 15
    name LeftHand
    direction 0.994373 -0.0366703 0.0993905
    length 5.32135
    axis 0.00675269 0.680415 0.445699 xyz
    dof rx ry rz
  end
  begin
    id 16
    name RightShoulderDummy
    direction -0.967298 0.252589 -0.0230903
    length 3.68488
    axis -0.000934958 0.0245693 1.46543 xyz
  end
  begin
    id 17
    name RightShoulder
    direction -0.975062 0.221602 0.0120823
    length 3.13809
    axis 0.216257 0.0246515 1.45863 xyz
    dof rx ry rz
  end
  begin
    id 18
    name RightArm
    direction -0.99886 -0.00851186 -0.0469687
    length 10.3947
    axis -23.196 0.23503 -0.532632 xyz
    dof rx ry rz
  end
  begin
    id 19
    name RightForeArm
    direction -0.99909 0.00114866 0.0426317
    length 8.68355
    axis -9.91764 -0.134943 0.610517 xyz
    dof rx ry rz
  end
  begin
    id 20
    name RightHand
    direction -0.992888 -0.0489538 0.10852
    length 5.28593
    axis -0.00275396 -0.197403 0.246414 xyz
    dof rx ry rz
  end
  begin
    id 21
    name LeftUpLegDummy
    direction 1 -2.30186e-007 -8.31532e-007
    length 4.04083
    axis 0 0 0 xyz
  end
  begin
    id 22
    name LeftUpLeg
    direction -0.000920097 -1 2.79241e-006
    length 17.4221
    axis -3.48782 0.00143434 -0.0532288 xyz
    dof rx ry rz
  end
  begin
    id 23
    name LeftLeg
    direction -0.000920097 -1 2.7912e-006
    length 17.1239
    axis 3.68162 -0.00806512 -0.0529896 xyz
    dof rx ry rz
  end
  begin
    id 24
    name LeftFoot
    direction -2.57845e-005 -3.987e-007 1
    length 6.72091
    axis 3.02372e-005 -0.00147829 -0.214229 xyz
    dof rx ry rz
  end
  begin
    id 25
    name LeftToes
    direction 0.00813577 -0.00488255 0.999955
    length 3.85048
    axis 3.89895e-005 -0.0014783 -0.214229 xyz
    dof rx ry rz
  end
:hierarchy
  begin
    root RightUpLegDummy SpineDummy LeftUpLegDummy
    RightUpLegDummy RightUpLeg
    RightUpLeg RightLeg
    RightLeg RightFoot
    RightFoot RightToes
    SpineDummy Spine
    Spine Spine1
    Spine1 HEadDummy LeftShoulder1Dummy RightShoulderDummy
    HEadDummy HEad
    LeftShoulder1Dummy LeftShoulder1
    LeftShoulder1 LeftArm
    LeftArm LeftForeArm
    LeftForeArm LeftHand
    RightShoulderDummy RightShoulder
    RightShoulder RightArm
    RightArm RightForeArm
    RightForeArm RightHand
    LeftUpLegDummy LeftUpLeg
    LeftUpLeg LeftLeg
    LeftLeg LeftFoot
    LeftFoot LeftToes
  end

:SAMPLES-PER-SECOND 30
:FULLY-SPECIFIED
:DEGREES
129
root  -22.5504 8.48375 -16.2233 -170.961 -2.64305 -172.053
RightUpLeg  -98.1047 -7.94556 11.256
RightLeg  151.283 9.19032 -5.51005
RightFoot  -49.6206 4.01615 9.27981
RightToes  -6.44393 -0.00236614 -0.059943
Spine  19.3951 2.30681 3.72719
Spine1  31.712 5.10664 5.43664
HEad  -42.6399 -12.2003 3.68914
LeftShoulder1  -1.94126e-019 -3.10601e-018 -2.51263e-017
LeftArm  20.3873 -74.6857 -118.332
LeftForeArm  19.15 -39.8077 -7.91527
LeftHand  -0.648828 -0.348934 13.2185
RightShoulder  -4.96962e-017 0 -2.36833e-017
RightArm  -58.0383 77.2193 39.5509
RightForeArm  44.8668 38.34 5.94111
RightHand  -0.394831 0.358114 -8.04771
LeftUpLeg  -102.446 17.7784 13.1839
LeftLeg  154.177 1.30718 -0.734953
LeftFoot  -45.811 -1.06752 -2.36464
LeftToes  -17.4789 2.03064e-006 1.83538e-008
130
root  -22.5284 8.7338 -16.0816 -170.541 -2.22083 -172.199
RightUpLeg  -98.7954 -7.64841 11.7141
RightLeg  150.282 9.46913 -5.91257
RightFoot  -48.5963 3.99538 9.44306
RightToes  -6.02684 -0.000643038 -0.0561326
Spine  18.8157 2.48725 3.50148
Spine1  30.932 5.43299 5.27043
HEad  -42.8103 -12.0395 3.85158
LeftShoulder1  -1.94126e-019 -3.10601e-018 -2.51263e-017
LeftArm  21.7882 -72.0896 -120.691
LeftForeArm  19.6506 -42.98 -8.88198
LeftHand  -0.704483 -0.424305 14.1592
RightShoulder  -4.96962e-017 0 -2.36833e-017
RightArm  -51.1084 77.8292 49.1446
RightForeArm  45.4537 41.2093 6.68085
RightHand  -0.392988 0.157077 -8.28181
LeftUpLeg  -102.678 18.4047 12.3697
LeftLeg  153.237 1.16761 -0.681334
LeftFoot  -45.1667 -0.972765 -2.17705
LeftToes  -17.3138 2.03064e-006 1.83538e-008
131
root  -22.5143 8.87412 -15.9631 -170.388 -1.85156 -172.197
RightUpLeg  -99.2324 -7.46687 11.8845
RightLeg  149.668 9.27881 -5.93073
RightFoot  -47.8457 3.82084 9.20652
RightToes  -5.94745 0.000982854 -0.0541743
Spine  18.2744 2.65264 3.38693
Spine1  30.2845 5.76351 5.22281
HEad  -42.8263 -11.7863 3.83862
LeftShoulder1  -1.94126e-019 -3.10601e-018 -2.51263e-017
LeftArm  21.7439 -69.5261 -121.156
LeftForeArm  21.646 -46.407 -9.95043
LeftHand  -0.755576 -0.761232 14.3692
RightShoulder  -4.96962e-017 0 -2.36833e-017
RightArm  -43.4332 77.695 59.1819
RightForeArm  44.7434 44.312 7.63945
RightHand  -0.37852 -0.151063 -8.41748
LeftUpLeg  -102.981 18.9069 11.8336
LeftLeg  152.716 0.87813 -0.521951
LeftFoot  -44.679 -0.952174 -2.15531
LeftToes  -15.7426 2.03064e-006 1.83538e-008
132
root  -22.4932 8.90336 -15.8841 -170.575 -1.49962 -172.147
RightUpLeg  -99.4859 -7.36013 12.1363
RightLeg  149.482 9.13978 -5.88123
RightFoot  -47.2918 3.67665 8.99061
RightToes  -5.92035 0.00251344 -0.0530447
Spine  17.8397 2.77821 3.30364
Spine1  29.814 5.93748 5.28228
HEad  -43.1128 -11.5124 3.96722
LeftShoulder1  -1.94126e-019 -3.10601e-018 -2.51263e-017
LeftArm  20.844 -66.9869 -120.869
LeftForeArm  23.7922 -49.6852 -11.1006
LeftHand  -0.859933 -1.39105 14.8553
RightShoulder  -4.96962e-017 0 -2.36833e-017
RightArm  -36.1947 76.7524 68.9554
RightForeArm  43.9318 47.829 8.86297
RightHand  -0.358001 0.708785 -6.91364
LeftUpLeg  -103.042 19.2641 11.8201
LeftLeg  152.53 0.884533 -0.529661
LeftFoot  -44.2081 -0.86262 -1.96223
LeftToes  -17.472 2.03064e-006 1.83538e-008
133
root  -22.4778 8.82842 -15.8304 -171.148 -1.16119 -171.856
RightUpLeg  -99.4739 -7.18556 12.483
RightLeg  149.574 9.11046 -5.84096
RightFoot  -46.9273 3.57853 8.83766
RightToes  -5.69083 0.00395063 -0.0520845
Spine  17.6267 2.84836 3.31416
Spine1  29.6821 5.87017 5.58554
HEad  -43.9523 -11.2638 4.33832
LeftShoulder1  -1.94126e-019 -3.10601e-018 -2.51263e-017
LeftArm  19.596 -64.7415 -120.314
LeftForeArm  25.0531 -52.6536 -12.3577
LeftHand  -0.891665 -1.52489 15.1057
RightShoulder  -4.96962e-017 0 -2.36833e-017
RightArm  -30.2583 75.1236 76.913
RightForeArm  44.026 51.5687 10.303
RightHand  -0.359655 0.211352 -7.51437
LeftUpLeg  -102.871 19.4832 12.3722
LeftLeg  152.787 0.74245 -0.439304
LeftFoot  -43.9404 -0.873831 -2.00432
LeftToes  -16.1613 2.03064e-006 1.83538e-008
134
root  -22.4694 8.6585 -15.8232 -172.207 -0.873962 -171.345
RightUpLeg  -98.9572 -7.00395 12.8989
RightLeg  149.965 9.25918 -5.84962
RightFoot  -46.7882 3.5601 8.82264
RightToes  -5.42699 0.0052962 -0.0506342
Spine  17.6674 2.84695 3.47471
Spine1  29.9337 5.59869 6.15529
HEad  -44.7581 -10.7083 4.47446
LeftShoulder1  -1.94126e-019 -3.10601e-018 -2.51263e-017
LeftArm  18.0469 -62.557 -119.307
LeftForeArm  25.518 -55.5449 -13.856
LeftHand  -0.89532 -1.27832 15.7063
RightShoulder  -4.96962e-017 0 -2.36833e-017
RightArm  -25.9545 72.9436 82.8428
RightForeArm  44.2886 55.2419 11.975
RightHand  -0.362835 -0.267759 -8.24122
LeftUpLeg  -102.375 19.5505 13.4559
LeftLeg  153.415 0.703756 -0.405885
LeftFoot  -43.8228 -0.898325 -2.07162
LeftToes  -16.1168 2.03064e-006 1.83538e-008
135
root  -22.464 8.41956 -15.8566 -173.659 -0.727661 -170.869
RightUpLeg  -98.1044 -6.9361 13.2174
RightLeg  150.64 9.53915 -5.87453
RightFoot  -46.8906 3.62015 8.94125
RightToes  -5.15986 0.00655225 -0.0481787
Spine  18.0481 2.74419 3.7361
Spine1  30.7217 5.16138 6.76323
HEad  -45.7689 -9.68139 4.40105
LeftShoulder1  -1.94126e-019 -3.10601e-018 -2.51263e-017
LeftArm  15.925 -60.4956 -117.621
LeftForeArm  27.1891 -58.8107 -15.7823
LeftHand  -0.931143 -1.43821 15.9535
RightShoulder  -4.96962e-017 0 -2.36833e-017
RightArm  -23.2926 70.5749 86.7127
RightForeArm  45.51 59.2633 14.181
RightHand  -0.381694 -0.163884 -8.50756
LeftUpLeg  -101.563 19.3643 14.7425
LeftLeg  154.272 0.701049 -0.390531
LeftFoot  -43.8757 -0.947647 -2.19106
LeftToes  -16.2363 2.03064e-006 1.83538e-008
136
root  -22.451 8.14107 -15.9362 -175.563 -0.640259 -170.385
RightUpLeg  -96.5872 -6.9801 13.4598
RightLeg  151.491 9.82977 -5.85761
RightFoot  -47.4501 3.74585 9.11685
RightToes  -4.52689 0.0077205 -0.0421041
Spine  18.858 2.59876 4.10035
Spine1  32.1436 4.64139 7.44105
HEad  -46.8853 -8.27851 4.39097
LeftShoulder1  -1.94126e-019 -3.10601e-018 -2.51263e-017
LeftArm  14.9329 -59.3917 -115.356
LeftForeArm  29.8989 -60.8611 -17.0318
LeftHand  -0.990581 -1.22046 17.4885
RightShoulder  -4.96962e-017 0 -2.36833e-017
RightArm  -22.0773 68.5024 88.4479
RightForeArm  46.89 62.3226 16.2465
RightHand  -0.403577 -0.202126 -9.05732
LeftUpLeg  -100.12 18.9828 16.5175
LeftLeg  155.281 0.913893 -0.489687
LeftFoot  -44.1668 -0.998796 -2.29995
LeftToes  -16.4006 2.03064e-006 1.83538e-008
137
root  -22.437 7.84317 -15.9877 -177.051 -0.541077 -169.977
RightUpLeg  -95.683 -6.85013 13.7484
RightLeg  152.362 10.2402 -5.89883
RightFoot  -47.8688 3.89491 9.36915
RightToes  -3.98029 0.00880286 -0.0372873
Spine  19.4559 2.49769 4.42564
Spine1  33.1551 4.22265 8.06347
HEad  -47.1513 -6.60764 4.17822
LeftShoulder1  -1.94126e-019 -3.10601e-018 -2.51263e-017
LeftArm  14.3759 -58.5483 -113.122
LeftForeArm  31.5741 -61.7107 -17.5403
LeftHand  -1.02408 -1.29236 17.8792
RightShoulder  -4.96962e-017 0 -2.36833e-017
RightArm  -21.7771 66.4358 88.5289
RightForeArm  47.0448 63.9696 17.6375
RightHand  -0.425988 -0.467645 -10.0488
LeftUpLeg  -99.3643 18.6401 17.9946
LeftLeg  156.278 1.11219 -0.572268
LeftFoot  -44.2146 -1.05077 -2.4249
LeftToes  -17.3162 2.03064e-006 1.83538e-008
138
root  -22.4244 7.60886 -16.0753 -178.715 -0.547043 -169.705
RightUpLeg  -93.9565 -7.14568 13.7076
RightLeg  153.096 10.2352 -5.72148
RightFoot  -48.8969 4.02401 9.44421
RightToes  -4.25847 0.00980124 -0.0398628
Spine  20.3911 2.4513 4.84299
Spine1  34.754 4.16405 8.52835
HEad  -47.46 -4.38288 3.94649
LeftShoulder1  -1.94126e-019 -3.10601e-018 -2.51263e-017
LeftArm  15.2272 -58.545 -111.481
LeftForeArm  31.8105 -61.534 -17.3541
LeftHand  -1.01918 -1.15133 18.1658
RightShoulder  -4.96962e-017 0 -2.36833e-017
RightArm  -21.6655 67.0464 89.3533
RightForeArm  46.0664 62.8003 16.7094
RightHand  -0.401466 -0.0889305 -8.82837
LeftUpLeg  -98.0832 18.1829 19.35
LeftLeg  157.105 1.38519 -0.688749
LeftFoot  -44.5551 -1.10601 -2.5378
LeftToes  -17.3768 2.03064e-006 1.83538e-008
139
root  -22.4396 7.43583 -16.1687 -179.73 -0.750198 -169.482
RightUpLeg  -92.9328 -7.64014 13.6866
RightLeg  153.73 10.2722 -5.59351
RightFoot  -49.4431 4.10628 9.51178
RightToes  -4.63536 0.0107176 -0.0433455
Spine  21.0844 2.356 5.24028
Spine1  35.7579 3.89792 9.00995
HEad  -46.5231 -2.17309 3.75279
LeftShoulder1  -1.94126e-019 -3.10601e-018 -2.51263e-017
LeftArm  18.0788 -59.1618 -113.48
LeftForeArm  30.9296 -59.0782 -15.5554
LeftHand  -1.1054 -1.48759 18.7372
RightShoulder  -4.96962e-017 0 -2.36833e-017
RightArm  -19.864 68.744 89.9075
RightForeArm  44.9761 60.3784 14.9536
RightHand  -0.334261 -1.78225 -10.5843
LeftUpLeg  -97.099 17.884 20.2503
LeftLeg  157.735 1.95614 -0.947538
LeftFoot  -45.3078 -1.10172 -2.4778
LeftToes  -17.952 2.03064e-006 1.83538e-008
140
root  -22.4641 7.36979 -16.2376 179.417 -1.02254 -169.291
RightUpLeg  -91.9432 -8.10687 13.5515
RightLeg  154.051 10.3057 -5.53715
RightFoot  -49.7094 4.13002 9.50849
RightToes  -4.49825 0.0115537 -0.0468258
Spine  21.6672 2.18749 5.46283
Spine1  36.5483 3.45594 9.33592
HEad  -45.7421 0.0230665 4.09648
LeftShoulder1  -1.94126e-019 -3.10601e-018 -2.51263e-017
LeftArm  21.4341 -59.8862 -114.015
LeftForeArm  31.7231 -58.5494 -15.1143
LeftHand  -1.01228 -0.865358 18.8421
RightShoulder  -4.96962e-017 0 -2.36833e-017
RightArm  -17.5649 69.4507 90.7061
RightForeArm  45.2949 59.5755 14.3804
RightHand  -0.472808 -1.16477 -12.9192
LeftUpLeg  -96.4706 17.4239 20.6567
LeftLeg  158.079 2.15121 -1.02653
LeftFoot  -45.522 -1.17227 -2.63208
LeftToes  -17.186 2.03064e-006 1.83538e-008
